<?xml version="1.0" encoding="UTF-8" standalone="no"?>
<!DOCTYPE svg PUBLIC "-//W3C//DTD SVG 1.1//EN" "http://www.w3.org/Graphics/SVG/1.1/DTD/svg11.dtd">
<svg width="100%" height="100%" viewBox="0 0 64 64" version="1.1" xmlns="http://www.w3.org/2000/svg" xmlns:xlink="http://www.w3.org/1999/xlink" xml:space="preserve" xmlns:serif="http://www.serif.com/" style="fill-rule:evenodd;clip-rule:evenodd;stroke-linecap:round;stroke-linejoin:round;stroke-miterlimit:22.926;">
    <g transform="matrix(0.052061,0,0,0.052061,-5.451694,10.948238)">
        <path d="M378.496,428.883C368.598,440.449 371.52,466.859 400.629,482.094C429.742,497.324 485.043,501.379 540.473,499.652C595.902,497.93 651.453,490.426 690.805,467.168C730.16,443.914 753.316,404.906 746.031,393.629C738.75,382.355 701.023,398.812 643.918,408.477C586.812,418.137 510.32,421 460.719,420.793C411.113,420.59 388.395,417.316 378.496,428.883" style="fill:rgb(219,60,28);"/>
    </g>
    <g transform="matrix(0.052061,0,0,0.052061,-5.451694,10.948238)">
        <path d="M930.453,338.703C909.562,332.023 862.438,319.672 796.941,325.023C731.441,330.375 647.559,353.43 564.73,367.273C481.902,381.117 400.125,385.754 375.719,394.57C351.309,403.383 384.273,416.375 433.832,423.863C483.391,431.352 549.547,433.336 622.656,422.426C695.758,411.516 775.812,387.715 829.973,373.059C884.137,358.406 912.414,352.898 929.215,349.641C946.016,346.387 951.348,345.379 930.453,338.703" style="fill:rgb(96,174,187);"/>
    </g>
    <g transform="matrix(0.003507,0,0,-0.003504,3.419621,42.323607)">
        <path d="M14557.515,4655.937C14234.32,4732.014 13911.126,4808.09 13560.79,4849.059C13210.397,4889.97 12832.921,4895.773 12623.914,4869.66C12414.792,4843.547 12374.081,4785.459 12483.281,4712.748C12592.598,4640.095 12851.711,4552.818 12947.515,4532.508C13043.319,4512.139 12975.932,4558.795 12457.185,4753.427C11938.612,4948.058 10968.68,5290.665 10248.581,5514.253C9528.483,5737.841 9058.044,5842.411 8398.954,5856.918C7739.806,5871.425 6891.892,5795.929 6197.89,5639.133C5503.888,5482.337 4963.8,5244.241 4496.319,4956.762C4028.78,4669.284 3633.906,4332.48 3686.158,4370.199C3738.409,4407.976 4237.844,4820.277 4888.293,5020.653C5538.742,5221.029 6340.147,5209.365 7008.051,5087.445C7675.898,4965.467 8210.187,4733.174 8596.362,4596.689C8982.595,4460.203 9220.656,4419.582 9574.935,4387.608C9929.214,4355.691 10399.595,4332.48 10823.465,4265.687C11247.51,4198.895 11624.986,4088.523 11717.891,4097.285C11810.795,4105.932 11619.187,4233.713 11061.7,4332.48C10504.098,4431.188 9580.735,4500.882 8474.461,4448.597C7368.13,4396.312 6078.831,4222.107 5210.618,4117.596C4342.406,4013.026 3895.222,3978.209 3538.044,3978.209C3180.923,3978.209 2913.75,4013.026 2806.347,4091.424C2698.886,4169.823 2751.137,4291.801 2896.352,4376.002C3041.508,4460.203 3279.627,4506.685 3378.331,4474.71C3477.093,4442.794 3436.44,4332.48 3378.331,4236.615C3320.28,4140.808 3244.773,4059.508 3157.668,4050.804C3070.562,4042.099 2971.801,4105.932 2954.403,4178.585C2937.005,4251.18 3000.855,4332.48 3093.76,4393.411C3186.722,4454.4 3308.682,4495.079 3282.527,4434.089C3256.372,4373.1 3082.161,4210.501 2809.188,4108.891C2536.273,4007.223 2164.597,3966.603 1850.971,3937.53C1537.403,3908.515 1281.828,3891.106 1162.769,3844.624C1043.767,3798.143 1061.165,3722.646 1113.417,3696.533C1165.726,3670.419 1252.832,3693.631 1325.439,3740.113C1397.988,3786.595 1456.097,3856.23 1380.59,3862.033C1305.083,3867.836 1096.019,3809.807 930.507,3731.351C764.995,3653.011 643.036,3554.244 544.274,3307.444C445.57,3060.644 370.063,2665.694 306.155,2389.822C242.305,2114.007 190.053,1957.211 192.953,1864.305C195.852,1771.342 253.903,1742.327 236.505,1692.944C219.107,1643.618 126.145,1573.925 70.993,1568.122C15.842,1562.319 -1.614,1620.349 102.948,1608.743C207.451,1597.137 433.971,1515.837 587.827,1472.257C741.74,1428.735 823.046,1422.932 840.444,1495.469C857.9,1568.064 811.447,1719.115 741.74,1788.751C672.09,1858.444 579.128,1846.896 494.98,1846.896C410.774,1846.896 335.267,1858.444 341.067,1925.236C346.866,1992.028 433.971,2114.007 529.776,2140.12C625.58,2166.233 730.141,2096.598 715.585,2087.893C701.087,2079.131 567.529,2131.416 509.478,2256.295C451.369,2381.175 468.825,2578.592 532.675,2744.092C596.583,2909.593 706.944,3043.177 764.995,3078.053C823.046,3112.871 828.903,3048.98 802.748,2921.257C776.594,2793.476 718.543,2601.804 686.589,2456.614C654.634,2311.482 648.835,2212.715 663.333,2331.792C677.832,2450.811 712.743,2787.673 811.447,3028.67C910.151,3269.667 1072.764,3414.915 1281.828,3478.748C1490.951,3542.638 1746.468,3525.229 1972.988,3397.448C2199.45,3269.667 2396.916,3031.571 2492.721,2712.176C2588.525,2392.781 2582.726,1992.028 2550.772,1707.451C2518.876,1422.932 2460.767,1254.53 2306.911,1132.552C2152.998,1010.573 1903.28,935.077 1682.559,955.387C1461.896,975.697 1270.23,1091.873 1125.015,1338.731C979.859,1585.531 881.155,1963.014 881.155,2296.916C881.155,2630.877 979.859,2921.257 1110.517,3092.56C1241.233,3263.864 1403.845,3316.149 1502.549,3336.459C1601.253,3356.769 1636.107,3345.221 1609.952,3295.838C1583.855,3246.455 1496.692,3159.353 1502.549,3005.458C1508.349,2851.563 1607.053,2630.877 1624.508,2639.581C1641.906,2648.286 1578.056,2886.381 1609.952,3011.261C1641.906,3136.083 1769.665,3147.747 1903.28,3031.571C2036.838,2915.396 2176.195,2671.497 2234.246,2386.92C2292.355,2102.401 2269.158,1777.145 2144.299,1562.261C2019.44,1347.377 1792.92,1242.866 1595.454,1289.348C1397.988,1335.771 1229.576,1533.246 1145.371,1806.218C1061.165,2079.131 1061.165,2427.599 1113.417,2659.891C1165.726,2892.184 1270.23,3008.359 1464.796,3083.856C1659.304,3159.353 1943.876,3194.17 2196.551,3153.55C2449.168,3112.871 2669.831,2996.753 2899.193,2802.18C3128.613,2607.607 3366.732,2334.693 3709.413,2157.529C3826.247,2097.136 3955.233,2047.883 4094.648,2008.965C4364.076,1933.755 4672.454,1897.144 5007.353,1893.32C5515.487,1887.517 6084.63,1957.211 6636.375,2087.893C7188.062,2218.518 7722.351,2410.19 8102.726,2584.395C8483.16,2758.6 8709.622,2915.396 8613.818,3028.67C8517.956,3141.944 8099.885,3211.637 7289.665,3275.528C6479.562,3339.36 5277.426,3397.448 4385.958,3385.842C3494.491,3374.236 2913.75,3292.937 2666.932,3202.875C2420.114,3112.871 2507.219,3014.162 2571.127,2805.082C2634.977,2596.059 2675.631,2276.606 2664.032,1994.93C2652.433,1713.312 2588.525,1469.355 2608.881,1335.771C2629.178,1202.245 2733.739,1178.975 2977.658,1161.566C3221.518,1144.157 3604.794,1132.552 3662.902,1210.95C3721.011,1289.348 3453.838,1457.75 3233.175,1553.556C3012.512,1649.421 2838.301,1672.633 2835.343,1600.038C2832.443,1527.443 3000.855,1359.041 3253.472,1271.939C3506.09,1184.836 3842.971,1178.975 4234.945,1164.468C4626.977,1149.96 5074.161,1126.691 5492.232,1080.267C5910.419,1033.843 6299.552,964.15 6688.626,911.865C7077.701,859.58 7466.834,824.704 7574.237,868.285C7681.698,911.865 7507.487,1033.843 7222.915,1170.271C6938.344,1306.756 6543.412,1457.75 6351.803,1475.216C6160.137,1492.625 6171.735,1376.45 6264.698,1251.57C6357.603,1126.691 6531.813,993.164 6848.339,917.668C7164.864,842.171 7623.589,824.704 7931.415,798.591C8239.242,772.478 8396.055,737.602 8407.653,836.368C8419.252,935.077 8285.694,1167.369 8265.339,1460.651C8244.983,1753.933 8337.946,2108.204 8207.288,2198.208C8076.63,2288.212 7722.351,2114.007 7042.847,1939.744C6363.402,1765.539 5358.732,1591.334 4685.028,1501.272C4011.382,1411.268 3668.702,1405.523 3796.46,1414.169C3924.277,1422.932 4522.416,1446.144 5190.263,1446.144C5858.167,1446.144 6595.664,1422.932 7138.71,1338.731C7681.698,1254.53 8030.119,1109.282 8274.037,940.88C8517.956,772.478 8657.371,580.806 8793.828,421.108C8930.344,261.411 9063.843,133.629 9313.619,69.739C9563.337,5.848 9929.214,5.848 10193.372,229.436C10457.704,453.083 10620.316,900.259 10646.413,1315.461C10672.626,1730.721 10562.207,2114.007 10373.498,2384.019C10184.731,2654.088 9917.558,2810.885 9630.087,2874.775C9342.615,2938.666 9034.847,2909.593 8811.226,2717.979C8587.663,2526.307 8448.306,2172.094 8416.352,1832.331C8384.398,1492.625 8459.905,1167.369 8497.658,1068.661C8535.412,969.894 8535.412,1097.676 8573.165,1161.566C8610.919,1225.457 8686.367,1225.457 8724.121,1405.523C8761.874,1585.531 8761.874,1945.547 8904.189,2177.897C9046.446,2410.19 9331.017,2514.701 9609.789,2433.402C9888.561,2352.102 10161.476,2084.992 10251.481,1751.031C10341.486,1417.071 10248.581,1016.376 10132.537,755.011C10016.32,493.703 9876.904,371.783 9670.74,360.119C9464.633,348.513 9191.66,447.222 9014.491,609.879C8837.381,772.478 8756.075,998.967 8741.577,1242.866C8727.078,1486.764 8779.33,1748.13 8878.034,1797.513C8976.738,1846.896 9121.952,1684.239 9299.063,1576.826C9476.231,1469.355 9685.238,1417.129 9754.945,1440.341C9824.653,1463.553 9755.003,1562.319 9720.092,1475.216C9685.238,1388.056 9685.238,1115.085 9743.347,859.58C9801.456,604.018 9917.616,365.922 10010.52,232.396C10103.367,98.812 10173.132,69.739 10324.088,69.739C10475.102,69.739 10707.421,98.812 10887.374,217.83C11067.5,336.907 11195.2,545.988 11203.899,624.386C11212.714,702.784 11102.295,650.499 11026.789,667.908C10951.34,685.375 10910.687,772.478 10878.733,1065.759C10846.779,1359.041 10823.465,1858.444 10663.869,2209.814C10504.098,2561.183 10207.986,2764.461 10257.338,2828.293C10306.69,2892.184 10701.564,2816.746 10942.583,2543.774C11183.602,2270.803 11270.707,1800.415 11291.004,1472.257C11311.418,1144.157 11264.908,958.289 11288.105,914.766C11311.418,871.186 11404.323,969.894 11601.673,1016.376C11799.197,1062.858 12101.166,1057.055 12446.688,1289.348C12792.326,1521.64 13181.401,1992.028 13521.123,2302.719C13860.904,2613.468 14151.217,2764.461 14548.99,2866.071C14946.938,2967.681 15452.114,3019.965 15739.585,2935.764C16027.114,2851.563 16096.706,2630.877 16117.119,2427.599C16137.417,2224.321 16108.362,2038.51 16105.521,1881.714C16102.505,1724.918 16125.818,1597.137 16169.313,1623.25C16212.924,1649.421 16276.832,1829.429 16180.97,1913.63C16085.107,1997.831 15829.59,1986.225 15205.296,1829.429C14581.002,1672.633 13587.873,1370.647 13010.089,1135.453C12432.19,900.259 12269.577,731.799 12075.069,653.401C11880.503,575.003 11653.982,586.609 11770.2,569.2C11886.302,551.791 12345.084,505.309 12647.112,522.776C12949.139,540.185 13094.295,621.485 13227.795,769.576C13361.411,917.668 13483.428,1132.552 13558.935,1196.384C13634.383,1260.275 13663.38,1173.172 13608.229,1030.942C13553.077,888.595 13413.72,691.178 13428.218,723.094C13442.717,755.011 13611.128,1016.376 13779.598,1193.541C13948.009,1370.647 14116.421,1463.553 14154.116,1393.859C14191.928,1324.165 14098.965,1091.873 14014.701,967.051C13930.495,842.171 13855.105,824.704 13936.411,940.88C14017.717,1057.055 14255.778,1306.756 14406.791,1431.636C14557.805,1556.458 14621.597,1556.458 14595.5,1437.381C14569.404,1318.362 14453.186,1080.267 14389.336,1019.278C14325.485,958.289 14313.887,1074.464 14456.085,1234.161C14598.4,1393.859 14894.57,1597.137 15010.73,1597.137C15126.89,1597.137 15062.982,1393.859 14973.035,1251.57C14883.03,1109.282 14766.812,1027.982 14804.623,1126.691C14842.318,1225.457 15033.985,1504.231 15182.099,1646.52C15330.097,1788.751 15434.716,1794.554 15452.114,1692.944C15469.512,1591.334 15399.921,1382.253 15315.599,1274.84C15231.393,1167.369 15132.689,1161.566 15179.199,1295.151C15225.594,1428.735 15417.319,1701.648 15568.332,1797.513C15719.288,1893.32 15829.59,1812.02 15835.39,1658.126C15841.189,1504.231 15742.485,1277.742 15693.133,1225.457C15643.781,1173.172 15643.781,1295.151 15725.087,1539.049C15806.393,1782.948 15969.005,2148.824 15873.201,2294.015C15777.339,2439.205 15423.118,2363.708 14914.926,2233.025C14406.791,2102.401 13744.686,1916.532 13216.196,1843.937C12687.823,1771.342 12292.833,1812.02 11996.721,1870.108C11700.493,1928.138 11503.027,2003.692 11398.523,2163.39C11294.02,2323.087 11282.306,2566.986 11140.107,2709.275C10997.792,2851.563 10724.819,2892.184 10823.465,2895.086C10922.285,2897.987 11392.724,2863.169 11837.008,2819.589C12281.234,2776.067 12699.363,2723.782 13039.086,2776.067C13378.808,2828.293 13640.183,2985.09 13904.399,3051.882C14168.73,3118.674 14435.788,3095.462 14772.611,3144.845C15109.492,3194.17 15516.022,3316.149 15768.582,3362.63C16021.199,3409.054 16120.019,3380.039 16175.112,3229.046C16230.322,3078.053 16241.92,2805.082 16259.376,2831.195C16276.832,2857.366 16300.029,3182.564 16178.012,3429.422C16056.111,3676.222 15788.937,3844.624 15722.187,3853.329C15655.38,3862.033 15788.937,3711.04 15786.096,3670.419C15783.196,3629.741 15643.781,3699.434 15513.065,3754.62C15382.407,3809.807 15260.506,3850.427 15135.589,3856.23C15010.73,3862.033 14883.03,3833.019 14874.331,3754.62C14865.574,3676.222 14975.876,3548.441 15025.286,3548.441C15074.58,3548.441 15062.982,3676.222 14955.579,3745.916C14848.118,3815.61 14644.91,3827.216 14557.805,3745.858C14470.584,3664.559 14499.696,3490.354 14579.726,3455.652C14659.699,3420.95 14790.589,3525.752 14726.681,3609.953C14662.888,3694.154 14404.182,3757.812 14254.502,3728.623C14104.822,3699.434 14064.111,3577.456 14096.123,3458.321C14128.135,3339.186 14232.813,3222.837 14270.508,3263.458C14308.319,3304.136 14279.091,3501.785 14110.621,3562.833C13942.21,3623.938 13634.383,3548.441 13204.598,3501.959C12774.928,3455.536 12223.183,3438.127 11802.096,3461.339C11381.068,3484.551 11090.697,3548.441 10901.93,3641.347C10713.163,3734.31 10626.115,3856.23 10617.416,3821.413C10608.717,3786.595 10678.425,3594.923 10826.423,3438.127C10974.479,3281.331 11200.999,3159.353 11256.209,3136.083C11311.418,3112.871 11195.2,3188.367 11227.212,3272.568C11259.108,3356.769 11439.118,3449.733 11421.663,3562.949C11404.323,3676.222 11189.401,3809.807 11038.387,3870.796C10887.374,3931.727 10800.268,3920.121 10864.234,3876.599C10928.085,3833.019 11143.006,3757.522 11436.219,3792.34C11729.489,3827.216 12101.166,3972.406 12310.288,3998.519C12519.295,4024.69 12565.805,3931.727 12527.994,3859.132C12490.299,3786.537 12368.281,3734.31 12397.394,3696.533C12426.39,3658.814 12606.4,3635.544 12731.317,3647.15C12856.176,3658.814 12925.884,3705.237 13004.174,3769.128C13082.697,3833.019 13169.802,3914.318 13227.795,4007.223C13285.904,4100.187 13315.016,4204.698 13506.625,4268.589C13698.292,4332.48 14052.513,4355.691 14287.732,4370.199C14522.893,4384.764 14639.111,4390.509 14676.807,4341.184C14714.618,4291.801 14673.907,4187.289 14621.597,4094.326C14569.404,4001.421 14505.495,3920.121 14589.179,3882.402C14672.979,3844.624 14904.313,3850.427 15046.57,3954.997C15188.826,4059.508 15242.122,4262.786 15329.691,4396.312C15417.319,4529.896 15539.162,4593.787 15597.271,4582.181C15655.38,4570.575 15649.58,4483.473 15585.672,4436.991C15521.822,4390.509 15399.921,4384.764 15428.917,4370.199C15457.914,4355.691 15637.982,4332.48 15768.582,4410.878C15899.298,4489.276 15980.604,4669.284 15983.504,4799.966C15986.403,4930.649 15910.896,5011.949 15710.473,4997.441C15510.223,4982.876 15184.999,4872.561 14935.223,4788.36C14685.506,4704.159 14511.295,4646.072 14377.679,4576.378C14244.179,4506.685 14151.217,4425.385 14049.613,4384.764C13948.009,4344.086 13837.591,4344.086 13849.189,4413.779C13860.904,4483.473 13994.404,4622.86 13907.298,4646.072C13820.193,4669.284 13512.424,4576.378 13110.707,4465.542C12708.99,4354.705 12213.498,4225.995 11879.517,4118.524C11545.594,4011.111 11373.296,3924.995 11092.611,3945.77C10811.867,3966.603 10422.792,4094.384 9723.049,4123.341C9023.248,4152.414 8012.721,4082.72 7347.774,3978.209C6682.827,3873.697 6363.402,3734.31 6174.635,3551.343C5985.926,3368.433 5927.875,3141.944 5891.745,2866.419C5855.674,2590.952 5841.581,2266.567 5701.528,2039.032C5561.417,1811.498 5295.288,1680.932 5029.158,1550.307" style="fill:none;fill-rule:nonzero;stroke:rgb(2,16,17);stroke-width:52.21px;"/>
    </g>
</svg>
